<svg width="187" height="22" viewBox="0 0 187 22" fill="none" xmlns="http://www.w3.org/2000/svg">
<path fill-rule="evenodd" clip-rule="evenodd" d="M0 20.4365V1.5365H4.347V13.8485L13.365 1.5365H17.469V20.4365H13.149V8.1515L4.131 20.4365H0ZM35.1348 1.5365H39.5088V20.4365H35.1348V12.6875H26.5488V20.4365H22.1748V1.5365H26.5488V8.9885H35.1348V1.5365ZM56.7451 21.2735V19.22C58.6096 19.1281 60.2206 18.8135 61.5781 18.2765C63.2341 17.6285 64.4851 16.6835 65.3311 15.4415C66.1951 14.1815 66.6271 12.6785 66.6271 10.9325C66.6271 9.1685 66.1951 7.6655 65.3311 6.4235C64.4671 5.1815 63.1891 4.2365 61.4971 3.5885C60.1558 3.06928 58.5718 2.75808 56.7451 2.65489V0.726501H52.7221V2.66048C50.9184 2.76899 49.3434 3.07833 47.9971 3.5885C46.3051 4.2365 45.0181 5.1815 44.1361 6.4235C43.2541 7.6475 42.8131 9.1505 42.8131 10.9325C42.8131 12.7145 43.2541 14.2265 44.1361 15.4685C45.0181 16.6925 46.3051 17.6285 47.9971 18.2765C49.3434 18.7867 50.9184 19.096 52.7221 19.2045V21.2735H56.7451ZM50.4001 6.5315C51.0678 6.32688 51.8418 6.18348 52.7221 6.10128V15.7826C51.9027 15.6992 51.1647 15.5585 50.5081 15.3605C49.3921 15.0005 48.5371 14.4605 47.9431 13.7405C47.3491 13.0025 47.0521 12.0665 47.0521 10.9325C47.0521 9.7985 47.3311 8.8715 47.8891 8.1515C48.4471 7.4135 49.2841 6.8735 50.4001 6.5315ZM56.7451 15.8013V6.08902C57.6509 6.1721 58.4429 6.3286 59.1211 6.5585C60.2011 6.9005 61.0201 7.4315 61.5781 8.1515C62.1361 8.8715 62.4151 9.7895 62.4151 10.9055C62.4151 12.0215 62.1451 12.9485 61.6051 13.6865C61.0651 14.4065 60.2461 14.9555 59.1481 15.3335C58.463 15.5619 57.662 15.7178 56.7451 15.8013ZM78.9444 20.7605C77.4504 20.7605 76.0644 20.5175 74.7864 20.0315C73.5264 19.5455 72.4284 18.8615 71.4924 17.9795C70.5744 17.0975 69.8544 16.0625 69.3324 14.8745C68.8284 13.6865 68.5764 12.3905 68.5764 10.9865C68.5764 9.5825 68.8284 8.2865 69.3324 7.0985C69.8544 5.9105 70.5834 4.8755 71.5194 3.9935C72.4554 3.1115 73.5534 2.4275 74.8134 1.9415C76.0734 1.4555 77.4414 1.2125 78.9174 1.2125C80.4114 1.2125 81.7794 1.4555 83.0214 1.9415C84.2814 2.4275 85.3704 3.1115 86.2884 3.9935C87.2244 4.8755 87.9534 5.9105 88.4754 7.0985C88.9974 8.2685 89.2584 9.5645 89.2584 10.9865C89.2584 12.3905 88.9974 13.6955 88.4754 14.9015C87.9534 16.0895 87.2244 17.1245 86.2884 18.0065C85.3704 18.8705 84.2814 19.5455 83.0214 20.0315C81.7794 20.5175 80.4204 20.7605 78.9444 20.7605ZM78.9174 17.0345C79.7634 17.0345 80.5374 16.8905 81.2394 16.6025C81.9594 16.3145 82.5894 15.9005 83.1294 15.3605C83.6694 14.8205 84.0834 14.1815 84.3714 13.4435C84.6774 12.7055 84.8304 11.8865 84.8304 10.9865C84.8304 10.0865 84.6774 9.2675 84.3714 8.5295C84.0834 7.7915 83.6694 7.1525 83.1294 6.6125C82.6074 6.0725 81.9864 5.6585 81.2664 5.3705C80.5464 5.0825 79.7634 4.9385 78.9174 4.9385C78.0714 4.9385 77.2884 5.0825 76.5684 5.3705C75.8664 5.6585 75.2454 6.0725 74.7054 6.6125C74.1654 7.1525 73.7424 7.7915 73.4364 8.5295C73.1484 9.2675 73.0044 10.0865 73.0044 10.9865C73.0044 11.8685 73.1484 12.6875 73.4364 13.4435C73.7424 14.1815 74.1564 14.8205 74.6784 15.3605C75.2184 15.9005 75.8484 16.3145 76.5684 16.6025C77.2884 16.8905 78.0714 17.0345 78.9174 17.0345ZM96.4413 20.4365V5.1005H90.4203V1.5365H106.809V5.1005H100.761V20.4365H96.4413ZM113.903 16.9265V12.5525H122.678V9.1505H113.903V5.0465H123.839V1.5365H109.556V20.4365H124.19V16.9265H113.903ZM125.891 1.5365H130.94L132.793 4.24507L132.683 4.27699L137.136 10.652L132.26 17.8472L132.291 17.8674L130.508 20.4365H125.459L132.209 10.7705L125.891 1.5365ZM139.376 8.04072L143.9 1.5365H138.77L136.75 4.48984L139.376 8.04072ZM136.908 17.0938L139.526 13.3584L144.413 20.4365H139.256L136.908 17.0938Z" fill="#272F3A"/>
</svg>
